<?xml version="1.0" encoding="UTF-8" standalone="no"?>
<!-- Created with Inkscape (http://www.inkscape.org/) -->

<svg
   xmlns:dc="http://purl.org/dc/elements/1.1/"
   xmlns:cc="http://creativecommons.org/ns#"
   xmlns:rdf="http://www.w3.org/1999/02/22-rdf-syntax-ns#"
   xmlns:svg="http://www.w3.org/2000/svg"
   xmlns="http://www.w3.org/2000/svg"
   xmlns:sodipodi="http://sodipodi.sourceforge.net/DTD/sodipodi-0.dtd"
   xmlns:inkscape="http://www.inkscape.org/namespaces/inkscape"
   id="svg2985"
   version="1.1"
   inkscape:version="0.48.5 r10040"
   width="1000"
   height="266.78406"
   xml:space="preserve"
   sodipodi:docname="rat_care.pdf"><metadata
     id="metadata2991"><rdf:RDF><cc:Work
         rdf:about=""><dc:format>image/svg+xml</dc:format><dc:type
           rdf:resource="http://purl.org/dc/dcmitype/StillImage" /><dc:title></dc:title></cc:Work></rdf:RDF></metadata><defs
     id="defs2989"><clipPath
       clipPathUnits="userSpaceOnUse"
       id="clipPath2999"><path
         d="M 0,0 612,0 612,792 0,792 0,0 z"
         id="path3001"
         inkscape:connector-curvature="0" /></clipPath><clipPath
       clipPathUnits="userSpaceOnUse"
       id="clipPath3037"><path
         d="m 411.226,87.642 96,0 0,39.95 -96,0 0,-39.95 z"
         id="path3039"
         inkscape:connector-curvature="0" /></clipPath><clipPath
       clipPathUnits="userSpaceOnUse"
       id="clipPath3077"><path
         d="m 411.226,87.642 96,0 0,39.95 -96,0 0,-39.95 z"
         id="path3079"
         inkscape:connector-curvature="0" /></clipPath><clipPath
       clipPathUnits="userSpaceOnUse"
       id="clipPath3095"><path
         d="m 411.226,87.642 96,0 0,39.95 -96,0 0,-39.95 z"
         id="path3097"
         inkscape:connector-curvature="0" /></clipPath><clipPath
       clipPathUnits="userSpaceOnUse"
       id="clipPath3175"><path
         d="m 411.226,87.642 96,0 0,39.95 -96,0 0,-39.95 z"
         id="path3177"
         inkscape:connector-curvature="0" /></clipPath><clipPath
       clipPathUnits="userSpaceOnUse"
       id="clipPath3205"><path
         d="m 411.226,87.642 96,0 0,39.95 -96,0 0,-39.95 z"
         id="path3207"
         inkscape:connector-curvature="0" /></clipPath><clipPath
       clipPathUnits="userSpaceOnUse"
       id="clipPath3221"><path
         d="m 411.226,87.642 96,0 0,39.95 -96,0 0,-39.95 z"
         id="path3223"
         inkscape:connector-curvature="0" /></clipPath><clipPath
       clipPathUnits="userSpaceOnUse"
       id="clipPath3235"><path
         d="m 411.226,87.642 96,0 0,39.95 -96,0 0,-39.95 z"
         id="path3237"
         inkscape:connector-curvature="0" /></clipPath><clipPath
       clipPathUnits="userSpaceOnUse"
       id="clipPath3251"><path
         d="m 411.226,87.642 96,0 0,39.95 -96,0 0,-39.95 z"
         id="path3253"
         inkscape:connector-curvature="0" /></clipPath><clipPath
       clipPathUnits="userSpaceOnUse"
       id="clipPath3265"><path
         d="m 411.226,87.642 96,0 0,39.95 -96,0 0,-39.95 z"
         id="path3267"
         inkscape:connector-curvature="0" /></clipPath><clipPath
       clipPathUnits="userSpaceOnUse"
       id="clipPath3417"><path
         d="m 411.226,87.642 96,0 0,39.95 -96,0 0,-39.95 z"
         id="path3419"
         inkscape:connector-curvature="0" /></clipPath><clipPath
       clipPathUnits="userSpaceOnUse"
       id="clipPath3429"><path
         d="M 0,0 612,0 612,792 0,792 0,0 z"
         id="path3431"
         inkscape:connector-curvature="0" /></clipPath><clipPath
       clipPathUnits="userSpaceOnUse"
       id="clipPath3459"><path
         d="M 0,0 612,0 612,792 0,792 0,0 z"
         id="path3461"
         inkscape:connector-curvature="0" /></clipPath><clipPath
       clipPathUnits="userSpaceOnUse"
       id="clipPath3875"><path
         d="M 0,0 612,0 612,792 0,792 0,0 z"
         id="path3877"
         inkscape:connector-curvature="0" /></clipPath><clipPath
       clipPathUnits="userSpaceOnUse"
       id="clipPath3983"><path
         d="m 63.163,613.5 113.4,0 0,128.043 -113.4,0 0,-128.043 z"
         id="path3985"
         inkscape:connector-curvature="0" /></clipPath><clipPath
       clipPathUnits="userSpaceOnUse"
       id="clipPath3995"><path
         d="M 0,0 612,0 612,792 0,792 0,0 z"
         id="path3997"
         inkscape:connector-curvature="0" /></clipPath></defs><sodipodi:namedview
     pagecolor="#ffffff"
     bordercolor="#666666"
     borderopacity="1"
     objecttolerance="10"
     gridtolerance="10"
     guidetolerance="10"
     inkscape:pageopacity="0"
     inkscape:pageshadow="2"
     inkscape:window-width="1044"
     inkscape:window-height="1029"
     id="namedview2987"
     showgrid="false"
     fit-margin-left="0.5"
     fit-margin-bottom="0.5"
     fit-margin-top="0.5"
     fit-margin-right="0.5"
     inkscape:zoom="0.54782919"
     inkscape:cx="712.24732"
     inkscape:cy="177.59087"
     inkscape:window-x="868"
     inkscape:window-y="-17"
     inkscape:window-maximized="0"
     inkscape:current-layer="g2993" /><g
     id="g2993"
     inkscape:groupmode="layer"
     inkscape:label="rat_care"
     transform="matrix(1.25,0,0,-1.25,-111.64652,714.1871)"><g
       id="g3033"><g
         id="g3035"
         clip-path="url(#clipPath3037)"><g
           id="g3041"
           transform="translate(661.3529,196.9327)"><path
             d="m 0,0 -1.463,0 -0.906,-2.257 c -0.395,1.101 -1.577,2.451 -3.574,2.451 -1.162,0 -2.097,-0.458 -2.751,-1.141 0.251,-0.437 0.374,-0.942 0.374,-1.449 -0.005,-0.814 -0.32,-1.647 -0.866,-2.124 l -10e-4,0 -0.001,-0.001 c -0.114,-0.099 -0.232,-0.186 -0.357,-0.265 0.49,-1.437 1.828,-2.563 3.622,-2.563 0.594,0 1.156,0.133 1.659,0.371 l -0.116,-0.29 1.993,0 0.383,1.051 2.524,0 0.353,-1.051 2.014,0 L 0,0 z m -4.194,-4.492 c -0.118,-0.255 -0.589,-1.227 -1.749,-1.227 -1.208,0 -1.954,1.061 -1.954,2.16 0,1.032 0.697,2.122 1.944,2.122 1.003,0 1.552,-0.726 1.759,-1.267 l 1.646,0 -0.718,-1.788 -0.928,0 z m 2.7,-0.251 0.747,2.484 0.019,0 0.011,0 0.747,-2.484 -1.524,0 z m -15.058,3.384 c 0.568,0 0.627,-0.461 0.667,-0.706 l 1.52,0 0,1.202 c -0.048,0.076 -0.1,0.153 -0.164,0.232 -0.473,0.559 -1.248,0.825 -1.965,0.825 -1.218,0 -2.544,-0.776 -2.544,-2.141 0,-1.365 1.267,-1.877 1.778,-2.083 1.12,-0.471 1.424,-0.589 1.424,-1.071 0,-0.333 -0.265,-0.697 -0.707,-0.697 -0.235,0 -0.755,0.147 -0.755,0.992 l -1.848,0 0,-0.013 -1.937,4.875 -1.464,0 -2.916,-7.268 1.994,0 0.382,1.05 2.525,0 0.353,-1.05 2.014,0 -0.165,0.416 c 0.402,-0.328 0.989,-0.553 1.837,-0.553 1.116,0 1.789,0.394 2.158,0.931 l 0,2.47 c -0.259,0.322 -0.675,0.618 -1.324,0.91 -1.306,0.59 -1.502,0.679 -1.502,1.11 0,0.344 0.315,0.569 0.639,0.569 m -6.024,-3.329 0.747,2.485 0.02,0 0.009,0 0.747,-2.485 -1.523,0 z"
             style="fill:#b6b5b5;fill-opacity:1;fill-rule:nonzero;stroke:none"
             id="path3043"
             inkscape:connector-curvature="0" /></g><g
           id="g3045"
           transform="translate(663.1514,196.9218)"><path
             d="m 0,0 c 0.247,0 0.443,-0.201 0.443,-0.451 0,-0.255 -0.196,-0.453 -0.445,-0.453 -0.246,0 -0.447,0.198 -0.447,0.453 0,0.25 0.201,0.451 0.447,0.451 L 0,0 z m -0.002,-0.07 c -0.199,0 -0.361,-0.171 -0.361,-0.381 0,-0.215 0.162,-0.383 0.363,-0.383 0.201,-0.002 0.361,0.168 0.361,0.381 0,0.212 -0.16,0.383 -0.361,0.383 l -0.002,0 z m -0.084,-0.644 -0.081,0 0,0.504 c 0.043,0.006 0.083,0.012 0.143,0.012 0.076,0 0.126,-0.017 0.156,-0.038 0.03,-0.023 0.047,-0.057 0.047,-0.105 0,-0.066 -0.044,-0.106 -0.099,-0.122 l 0,-0.004 C 0.124,-0.475 0.155,-0.515 0.165,-0.59 0.177,-0.668 0.188,-0.697 0.197,-0.714 l -0.085,0 C 0.1,-0.697 0.088,-0.652 0.078,-0.585 0.066,-0.521 0.034,-0.497 -0.03,-0.497 l -0.056,0 0,-0.217 z m 0,0.279 0.058,0 c 0.066,0 0.122,0.024 0.122,0.086 0,0.044 -0.031,0.088 -0.122,0.088 -0.026,0 -0.044,-0.001 -0.058,-0.004 l 0,-0.17 z"
             style="fill:#b6b5b5;fill-opacity:1;fill-rule:nonzero;stroke:none"
             id="path3047"
             inkscape:connector-curvature="0" /></g><g
           id="g3049"
           transform="translate(647.2668,196.9989)"><path
             d="M 0,0 2.384,0 C 3.732,0 4.235,-0.207 4.63,-0.532 5.201,-1.004 5.487,-1.723 5.487,-2.462 5.487,-3.2 5.181,-3.979 4.718,-4.374 4.216,-4.797 3.723,-5.004 2.59,-5.004 l -0.808,0 0,-2.286 L 0,-7.29 0,0 z m 1.782,-3.368 0.76,0 c 0.353,0 1.161,0 1.161,0.876 0,0.857 -0.827,0.857 -1.231,0.857 l -0.69,0 0,-1.733 z"
             style="fill:#f58113;fill-opacity:1;fill-rule:nonzero;stroke:none"
             id="path3051"
             inkscape:connector-curvature="0" /></g><g
           id="g3053"
           transform="translate(644.9382,188.1714)"><path
             d="m 0,0 0.664,0 c 0.264,0 0.478,-0.122 0.478,-0.451 0,-0.225 -0.108,-0.399 -0.314,-0.429 l 0,-0.005 c 0.187,-0.017 0.285,-0.112 0.295,-0.357 0.003,-0.113 0.006,-0.25 0.011,-0.355 0.005,-0.086 0.05,-0.128 0.089,-0.153 l -0.34,0 C 0.854,-1.718 0.841,-1.664 0.833,-1.595 0.823,-1.49 0.825,-1.392 0.82,-1.264 0.815,-1.073 0.751,-0.99 0.546,-0.99 l -0.245,0 0,-0.76 L 0,-1.75 0,0 z m 0.54,-0.779 c 0.193,0 0.301,0.108 0.301,0.284 0,0.186 -0.087,0.284 -0.285,0.284 l -0.255,0 0,-0.568 0.239,0 z"
             style="fill:#b6b5b5;fill-opacity:1;fill-rule:nonzero;stroke:none"
             id="path3055"
             inkscape:connector-curvature="0" /></g><g
           id="g3057"
           transform="translate(652.6966,188.1714)"><path
             d="m 0,0 0.665,0 c 0.263,0 0.477,-0.122 0.477,-0.451 0,-0.225 -0.108,-0.399 -0.314,-0.429 l 0,-0.005 c 0.187,-0.017 0.285,-0.112 0.295,-0.357 0.003,-0.113 0.006,-0.25 0.011,-0.355 0.005,-0.086 0.05,-0.128 0.09,-0.153 l -0.341,0 C 0.855,-1.718 0.841,-1.664 0.833,-1.595 0.823,-1.49 0.825,-1.392 0.82,-1.264 0.815,-1.073 0.752,-0.99 0.546,-0.99 l -0.245,0 0,-0.76 L 0,-1.75 0,0 z m 0.54,-0.779 c 0.193,0 0.301,0.108 0.301,0.284 0,0.186 -0.087,0.284 -0.284,0.284 l -0.256,0 0,-0.568 0.239,0 z"
             style="fill:#b6b5b5;fill-opacity:1;fill-rule:nonzero;stroke:none"
             id="path3059"
             inkscape:connector-curvature="0" /></g><g
           id="g3061"
           transform="translate(655.871,187.2967)"><path
             d="M 0,0 C 0,0.625 0.19,0.909 0.622,0.909 1.055,0.909 1.245,0.625 1.245,0 1.245,-0.625 1.055,-0.909 0.622,-0.909 0.19,-0.909 0,-0.625 0,0 m 0.944,0.007 c 0,0.588 -0.143,0.691 -0.322,0.691 -0.179,0 -0.321,-0.103 -0.321,-0.691 0,-0.602 0.142,-0.705 0.321,-0.705 0.179,0 0.322,0.103 0.322,0.705"
             style="fill:#b6b5b5;fill-opacity:1;fill-rule:nonzero;stroke:none"
             id="path3063"
             inkscape:connector-curvature="0" /></g><g
           id="g3065"
           transform="translate(659.124,187.0491)"><path
             d="m 0,0 0,-0.036 c 0,-0.317 -0.137,-0.625 -0.58,-0.625 -0.474,0 -0.622,0.283 -0.622,0.908 0,0.625 0.148,0.91 0.625,0.91 0.535,0 0.567,-0.368 0.567,-0.55 l 0,-0.031 -0.301,0 0,0.029 c 0,0.162 -0.053,0.348 -0.269,0.341 -0.221,0 -0.322,-0.127 -0.322,-0.691 0,-0.564 0.101,-0.706 0.322,-0.706 0.251,0 0.279,0.26 0.279,0.422 L -0.301,0 0,0 z"
             style="fill:#b6b5b5;fill-opacity:1;fill-rule:nonzero;stroke:none"
             id="path3067"
             inkscape:connector-curvature="0" /></g><g
           id="g3069"
           transform="translate(661.1151,188.3325)"><path
             d="m 0,0 c 0.216,0 0.388,-0.176 0.388,-0.396 0,-0.222 -0.172,-0.396 -0.39,-0.396 -0.215,0 -0.391,0.174 -0.391,0.396 0,0.22 0.176,0.396 0.391,0.396 L 0,0 z m -0.002,-0.061 c -0.174,0 -0.316,-0.15 -0.316,-0.335 0,-0.187 0.142,-0.335 0.318,-0.335 0.176,-0.002 0.316,0.148 0.316,0.334 0,0.186 -0.14,0.336 -0.316,0.336 l -0.002,0 z m -0.074,-0.565 -0.07,0 0,0.442 c 0.037,0.005 0.072,0.01 0.125,0.01 0.067,0 0.111,-0.014 0.137,-0.033 0.026,-0.019 0.041,-0.05 0.041,-0.092 0,-0.057 -0.039,-0.092 -0.087,-0.107 l 0,-0.003 c 0.039,-0.007 0.065,-0.042 0.074,-0.108 0.011,-0.068 0.021,-0.094 0.028,-0.109 l -0.073,0 c -0.011,0.015 -0.022,0.055 -0.03,0.113 -0.011,0.056 -0.039,0.077 -0.095,0.077 l -0.05,0 0,-0.19 z m 0,0.245 0.051,0 c 0.059,0 0.108,0.021 0.108,0.075 0,0.039 -0.029,0.077 -0.108,0.077 -0.022,0 -0.038,-0.001 -0.051,-0.003 l 0,-0.149 z"
             style="fill:#b6b5b5;fill-opacity:1;fill-rule:nonzero;stroke:none"
             id="path3071"
             inkscape:connector-curvature="0" /></g></g></g><g
       id="g3073"><g
         id="g3075"
         clip-path="url(#clipPath3077)"><text
           transform="matrix(1,0,0,-1,368.5898,192.9551)"
           id="text3081"><tspan
             style="font-size:5.8499999px;font-variant:normal;font-weight:bold;font-stretch:condensed;writing-mode:lr-tb;fill:#100f0d;fill-opacity:1;fill-rule:nonzero;stroke:none;font-family:Helvetica Neue;-inkscape-font-specification:HelveticaNeue-BoldCond"
             x="0 2.70855 5.9611502 9.2137499 12.46635 13.87035 17.017651 20.053801 23.3064 26.559"
             y="0"
             sodipodi:role="line"
             id="tspan3083">LOGO USAGE</tspan></text>
<text
           transform="matrix(1,0,0,-1,368.5898,112.0338)"
           id="text3085"><tspan
             style="font-size:4.05000019px;font-variant:normal;font-weight:500;font-stretch:condensed;writing-mode:lr-tb;fill:#100f0d;fill-opacity:1;fill-rule:nonzero;stroke:none;font-family:HelveticaNeue MediumCond;-inkscape-font-specification:HelveticaNeue-MediumCond"
             x="0 1.944 2.9159999 5.0179501 7.2697501 9.0679502 11.31975 13.4946 14.4666 16.264799 18.5166 20.69145"
             y="0"
             sodipodi:role="line"
             id="tspan3087">2 COLOR LOGO</tspan><tspan
             style="font-size:4.05000019px;font-variant:normal;font-weight:500;font-stretch:condensed;writing-mode:lr-tb;fill:#100f0d;fill-opacity:1;fill-rule:nonzero;stroke:none;font-family:HelveticaNeue MediumCond;-inkscape-font-specification:HelveticaNeue-MediumCond"
             x="0 1.944 2.9159999 5.0179501 7.2697501 9.0679502 11.31975 13.4946 14.4666 16.264799 18.5166 20.69145"
             y="73.349548"
             sodipodi:role="line"
             id="tspan3089">1 COLOR LOGO</tspan></text>
</g></g><g
       id="g3147"
       transform="matrix(8.6146682,0,0,8.6146682,807.53444,565.48798)"><path
         d="m 0,0 -4.789,0 -2.965,-7.385 c -1.291,3.601 -5.159,8.019 -11.693,8.019 -3.804,0 -6.864,-1.498 -9.003,-3.733 0.821,-1.431 1.225,-3.082 1.225,-4.741 -0.018,-2.666 -1.046,-5.39 -2.836,-6.951 l -0.003,-10e-4 -0.002,-0.002 c -0.373,-0.323 -0.759,-0.611 -1.171,-0.866 1.604,-4.702 5.985,-8.388 11.854,-8.388 1.945,0 3.785,0.434 5.429,1.214 l -0.38,-0.949 6.521,0 1.256,3.44 8.26,0 1.156,-3.44 6.588,0 L 0,0 z m -13.725,-14.699 c -0.386,-0.836 -1.929,-4.016 -5.722,-4.016 -3.952,0 -6.395,3.472 -6.395,7.07 0,3.377 2.282,6.944 6.364,6.944 3.279,0 5.078,-2.377 5.753,-4.146 l 5.385,0 -2.348,-5.852 -3.037,0 z m 8.838,-0.822 2.444,8.128 0.062,0 0.034,0 2.446,-8.128 -4.986,0 z m -49.279,11.075 c 1.862,0 2.053,-1.511 2.185,-2.312 l 4.972,0 0,3.934 c -0.156,0.25 -0.327,0.502 -0.536,0.758 -1.545,1.831 -4.083,2.7 -6.43,2.7 -3.985,0 -8.323,-2.54 -8.323,-7.006 0,-4.468 4.144,-6.141 5.817,-6.816 3.664,-1.542 4.659,-1.928 4.659,-3.504 0,-1.09 -0.867,-2.28 -2.313,-2.28 -0.77,0 -2.472,0.481 -2.472,3.244 l -6.047,0 0,-0.04 -6.336,15.951 -4.792,0 -9.543,-23.784 6.525,0 1.252,3.437 8.26,0 1.158,-3.437 6.589,0 -0.541,1.362 c 1.317,-1.073 3.239,-1.809 6.011,-1.809 3.655,0 5.854,1.289 7.062,3.047 l 0,8.081 c -0.846,1.054 -2.207,2.024 -4.331,2.977 -4.274,1.931 -4.915,2.223 -4.915,3.634 0,1.125 1.029,1.863 2.089,1.863 m -19.71,-10.895 2.443,8.133 0.066,0 0.031,0 2.443,-8.133 -4.983,0 z"
         style="fill:#b6b5b5;fill-opacity:1;fill-rule:nonzero;stroke:none"
         id="path3149"
         inkscape:connector-curvature="0" /></g><g
       id="g3151"
       transform="matrix(8.6146682,0,0,8.6146682,858.23349,565.18044)"><path
         d="m 0,0 c 0.808,0 1.451,-0.657 1.451,-1.477 0,-0.832 -0.643,-1.481 -1.457,-1.481 -0.807,0 -1.464,0.649 -1.464,1.481 0,0.82 0.657,1.477 1.464,1.477 L 0,0 z m -0.006,-0.229 c -0.651,0 -1.182,-0.558 -1.182,-1.248 0,-0.701 0.531,-1.253 1.188,-1.253 0.657,-0.006 1.181,0.552 1.181,1.247 0,0.696 -0.524,1.254 -1.181,1.254 l -0.006,0 z m -0.276,-2.107 -0.262,0 0,1.648 c 0.137,0.019 0.269,0.038 0.466,0.038 0.249,0 0.413,-0.052 0.511,-0.124 0.099,-0.072 0.152,-0.184 0.152,-0.342 0,-0.216 -0.145,-0.346 -0.322,-0.4 l 0,-0.012 c 0.144,-0.026 0.243,-0.158 0.276,-0.401 0.039,-0.256 0.077,-0.354 0.104,-0.407 l -0.275,0 c -0.04,0.053 -0.079,0.204 -0.111,0.42 -0.04,0.21 -0.145,0.289 -0.355,0.289 l -0.184,0 0,-0.709 z m 0,0.912 0.19,0 c 0.217,0 0.401,0.079 0.401,0.283 0,0.144 -0.105,0.288 -0.401,0.288 -0.085,0 -0.144,-0.006 -0.19,-0.013 l 0,-0.558 z"
         style="fill:#b6b5b5;fill-opacity:1;fill-rule:nonzero;stroke:none"
         id="path3153"
         inkscape:connector-curvature="0" /></g><g
       id="g3155"
       transform="matrix(8.6146682,0,0,8.6146682,410.4439,567.35392)"><path
         d="m 0,0 7.801,0 c 4.413,0 6.058,-0.675 7.35,-1.74 1.868,-1.546 2.805,-3.899 2.805,-6.317 0,-2.416 -1.002,-4.964 -2.516,-6.255 -1.645,-1.385 -3.256,-2.061 -6.965,-2.061 l -2.642,0 0,-7.481 -5.833,0 L 0,0 z m 5.833,-11.022 2.483,0 c 1.159,0 3.803,0 3.803,2.868 0,2.804 -2.707,2.804 -4.031,2.804 l -2.255,0 0,-5.672 z"
         style="fill:#f58113;fill-opacity:1;fill-rule:nonzero;stroke:none"
         id="path3157"
         inkscape:connector-curvature="0" /></g><g
       id="g3413"><g
         id="g3415"
         clip-path="url(#clipPath3417)"><text
           transform="matrix(1,0,0,-1,661.8638,-45.1371)"
           id="text3421"><tspan
             style="font-size:4.94999981px;font-variant:normal;font-weight:500;font-stretch:condensed;writing-mode:lr-tb;fill:#100f0d;fill-opacity:1;fill-rule:nonzero;stroke:none;font-family:HelveticaNeue MediumCond;-inkscape-font-specification:HelveticaNeue-MediumCond"
             x="0"
             y="0"
             id="tspan3423">3</tspan></text>
</g></g></g></svg>