<?xml version="1.0" encoding="utf-8"?>
<!-- Generator: Adobe Illustrator 19.1.0, SVG Export Plug-In . SVG Version: 6.00 Build 0)  -->
<!DOCTYPE svg PUBLIC "-//W3C//DTD SVG 1.1//EN" "http://www.w3.org/Graphics/SVG/1.1/DTD/svg11.dtd">
<svg version="1.1" id="Layer_1" xmlns="http://www.w3.org/2000/svg" xmlns:xlink="http://www.w3.org/1999/xlink" x="0px" y="0px"
	 viewBox="0 0 973.7 382.8" enable-background="new 0 0 973.7 382.8" xml:space="preserve">
<g fill="#11497c">
	<path d="M182.5,118c0,46.6-26.2,83.5-42.1,93.8c30,35.7,57.4,108.5,61.2,171h-81.7c-10.8-68.3-21-109.7-45.3-138.4
		v138.4H0V0h73.3C137.2,0,182.5,46.6,182.5,118z M81,163.3c12.1,0,30.6-11.5,30.6-45.3c0-30.6-14.7-46.6-30.6-46.6h-6.4v91.9H81z"/>
	<path d="M291.6,302.4c-3.2,24.9-5.1,52.3-6.4,80.4h-80.4C220.2,177.3,291.6,0,291.6,0h55.5
		c0,0,71.5,177.3,86.8,382.8h-77.2c-1.9-28.1-5.1-54.9-8.3-80.4H291.6z M338.2,230.9c-9.6-60-19.1-97.6-19.1-97.6
		s-9.6,37.6-18.5,97.6H338.2z"/>
	<path d="M517.6,382.8h-75.3V0h75.3V382.8z"/>
	<path d="M606.9,191.4v191.4h-68.3V0h60.6l79.1,191.4V0h68.3v382.8H686L606.9,191.4z"/>
	<path d="M834,191.4v191.4h-68.3V0h60.6l79.1,191.4V0h68.3v382.8h-60.6L834,191.4z"/>
</g>
</svg>
